<?xml version="1.0" encoding="UTF-8"?>
<svg id="Calque_2" data-name="Calque 2" xmlns="http://www.w3.org/2000/svg" viewBox="0 0 105.21 23.11">
  <defs>
    <style>
      .cls-1 {
        fill: #fff;
        stroke-width: 0px;
      }
    </style>
  </defs>
  <g id="Calque_1-2" data-name="Calque 1">
    <g>
      <path class="cls-1" d="M22.71,3.87h3.54v14.96h-3.54V3.87Z"/>
      <path class="cls-1" d="M59.17,23.11c-4.96,0-9.5-4.02-9.5-8.97v-4.03s-4.43-.97-4.43,2.44v6.28h-3.54V7.27h3.54v1.54c.71-.98,1.95-1.66,3.5-1.66,2.67,0,4.45,1.82,4.45,4.93v2.17c0,3.3,2.68,5.98,5.98,5.98"/>
      <path class="cls-1" d="M67.72,10.21h-1.41v-2.94h1.41v-2.82h3.54v2.82h2.32v2.94h-2.32v4.64c0,.68.29.97,1.08.97h1.26v3h-1.8c-2.4,0-4.08-1.01-4.08-4.02v-4.6Z"/>
      <path class="cls-1" d="M74.95,3.5h3.54v5.32c.7-.99,1.97-1.68,3.56-1.68,2.63,0,4.39,1.82,4.39,4.93v6.75h-3.52v-6.27c0-1.57-.87-2.44-2.22-2.44s-2.21.87-2.21,2.44v6.27h-3.54V3.5Z"/>
      <path class="cls-1" d="M88.28,7.27h3.54v11.55h-3.54V7.27Z"/>
      <path class="cls-1" d="M93.76,3.5h3.54v8.47l3.5-4.7h4.37l-4.8,5.8,4.85,5.76h-4.39l-3.52-4.85v4.85h-3.54V3.5Z"/>
      <path class="cls-1" d="M40.02,18.87V7.16h-3.54v.72c-.82-.47-1.77-.73-2.78-.72l-5.78.08.09,6.4c.04,2.93,2.45,5.27,5.38,5.23h6.63M34.26,16.15c-1.47.02-2.68-1.15-2.7-2.62l-.05-3.21,2.9-.04c1.51-.03,2.76,1.18,2.78,2.69l.04,3.13-2.97.05Z"/>
      <path class="cls-1" d="M92.88,3.6c.02,1.31-1.11,2.38-2.53,2.4l-3.1.04-.04-2.58c-.03-1.34,1.14-2.45,2.6-2.47l3.02-.04.05,2.64Z"/>
      <g>
        <path class="cls-1" d="M16.28,0h-2.53c-3.16,0-5.72,2.56-5.72,5.72v9.93c0,1.07-.85,1.96-1.91,1.98-1.56.04-3.05-1.16-3.05-2.67,0-.1,0-.19.02-.29.25-2.03,1.72-2.37,2.21-2.42l-3.88.26c-1.13,1.13-1.42,1.64-1.42,3.24,0,1.14.46,2.18,1.21,2.93.75.75,1.78,1.21,2.93,1.21h6.83s0-2.89,0-2.89c0-6.37,1.12-3.42,4.36-3.42h.95c4.15,0,4.46-2.72,4.46-6.79,0-2.9-.12-5.55-.12-6.8h-4.34ZM17.11,7.19c0,2.12-1.72,3.83-3.83,3.83h-2.15v-4.18c0-2.18,1.77-3.95,3.95-3.95h2.04v4.29Z"/>
        <path class="cls-1" d="M5.47,12.24h-.16c.09,0,.15,0,.16,0Z"/>
      </g>
      <path class="cls-1" d="M60.13,18.95c-3.4,0-5.84-2.28-5.84-5.94s2.4-5.94,5.84-5.94,5.76,2.24,5.76,5.76c0,.33-.02.68-.06,1.04h-8.01c.12,1.51,1.06,2.22,2.2,2.22.99,0,1.55-.5,1.84-1.12h3.77c-.56,2.26-2.61,4-5.49,4ZM57.83,11.89h4.43c0-1.26-.99-1.99-2.17-1.99s-2.05.7-2.26,1.99Z"/>
    </g>
  </g>
</svg>